<svg width="326" height="380" viewBox="0 0 326 380" fill="none" xmlns="http://www.w3.org/2000/svg">
<path d="M109.519 287.537L41.8425 292.973L41.1172 293.032V31.7711C41.3589 31.6187 41.6007 31.4662 41.8425 31.3137C55.947 22.3881 71.2043 15.0555 87.2752 9.479L90.7333 52.6314L91.0484 56.5821L94.4699 99.3766L95.525 112.541L109.394 286.012L109.519 287.537Z" fill="#CCCCCC"/>
<path d="M276.882 26.9059C277.365 27.1843 277.849 27.4627 278.332 27.7544V293.032L276.882 292.913L209.938 287.537L210.063 286.013L223.932 112.541L224.987 99.3768L228.409 56.5823L228.724 52.6316L232.35 7.37793C247.99 12.2827 262.937 18.8372 276.882 26.9059Z" fill="#CCCCCC"/>
<path d="M276.882 26.9058V296.652C276.882 301.829 272.94 306.038 268.09 306.038H50.6347C46.6197 306.038 43.2128 303.148 42.1797 299.204C41.9542 298.368 41.841 297.511 41.8427 296.652V31.3138C41.6009 31.4663 41.3591 31.6187 41.1174 31.7712C39.8938 32.5467 38.6849 33.3422 37.4833 34.1442V296.652C37.4184 300.584 39.0415 304.386 42.0112 307.257C43.5684 308.733 45.5381 309.801 47.7114 310.346C48.6641 310.581 49.6473 310.699 50.6347 310.698H268.09C269.08 310.699 270.065 310.58 271.021 310.346C276.867 308.921 281.242 303.327 281.242 296.652V29.4976C280.282 28.9076 279.307 28.3243 278.333 27.7542C277.849 27.4626 277.366 27.1842 276.882 26.9058Z" fill="#CCCCCC"/>
<path d="M279.064 52.6339H39.6636V56.5839H279.064V52.6339Z" fill="#CCCCCC"/>
<path d="M112.984 2.24714C114.435 1.92234 115.886 1.61743 117.351 1.3324V108.59H112.984V2.24714Z" fill="#CCCCCC"/>
<path d="M201.374 0C202.832 0.24526 204.29 0.49715 205.74 0.768924V108.59H201.374V0Z" fill="#CCCCCC"/>
<path d="M306.35 286.013H19.6501C14.4386 286.013 9.44051 287.886 5.75539 291.22C2.07028 294.554 0 299.076 0 303.791C0 308.506 2.07028 313.028 5.75539 316.362C9.44051 319.696 14.4386 321.569 19.6501 321.569H306.35C309.141 321.569 311.899 321.031 314.441 319.989C316.983 318.948 319.251 317.428 321.091 315.53C321.924 314.672 322.665 313.744 323.304 312.759C323.798 312.004 324.227 311.215 324.586 310.399C325.783 307.702 326.23 304.781 325.889 301.891C325.547 299.001 324.427 296.231 322.627 293.824C320.827 291.417 318.402 289.446 315.564 288.084C312.726 286.722 309.562 286.011 306.35 286.013Z" fill="#CCCCCC"/>
<path d="M279.064 99.3759H41.1187V112.543H279.064V99.3759Z" fill="#CCCCCC"/>
<path d="M157.908 95.4257H162.274C163.325 95.4257 164.366 95.613 165.337 95.9769C166.308 96.3408 167.191 96.8742 167.934 97.5467C168.677 98.2192 169.267 99.0175 169.669 99.8961C170.071 100.775 170.278 101.716 170.278 102.667H149.904C149.904 100.747 150.747 98.9048 152.248 97.5467C153.749 96.1886 155.785 95.4257 157.908 95.4257H157.908Z" fill="#CCCCCC"/>
<path d="M324.857 311.951C318.492 318.774 311.608 325.186 304.255 331.14H21.753C14.3996 325.186 7.51525 318.774 1.15039 311.951H324.857Z" fill="#3F3D56"/>
<path d="M186.654 245.485H139.09C138.833 245.483 138.578 245.518 138.335 245.591C137.819 245.736 137.367 246.026 137.047 246.42C136.726 246.813 136.554 247.29 136.555 247.779V315.762H189.197V247.779C189.196 247.477 189.13 247.178 189.002 246.9C188.875 246.621 188.687 246.368 188.451 246.155C188.215 245.942 187.935 245.773 187.626 245.658C187.318 245.543 186.988 245.485 186.654 245.485ZM168.653 279.026C168.655 280.129 168.253 281.201 167.51 282.075C166.801 282.924 165.816 283.55 164.693 283.865C163.57 284.18 162.366 284.168 161.251 283.831C160.136 283.494 159.166 282.85 158.478 281.987C157.789 281.125 157.417 280.09 157.414 279.026V271.138C157.427 269.798 158.026 268.517 159.078 267.573C160.13 266.63 161.552 266.101 163.033 266.101C164.515 266.101 165.936 266.63 166.989 267.573C168.041 268.517 168.639 269.798 168.653 271.138V279.026Z" fill="#2F2E41"/>
<path d="M136.393 313.588V320.143C136.393 320.483 136.542 320.809 136.807 321.05C137.072 321.291 137.431 321.428 137.807 321.429H187.943C188.319 321.426 188.678 321.29 188.942 321.049C189.207 320.808 189.356 320.483 189.358 320.143V313.588H136.393Z" fill="#3F3D56"/>
<path d="M265.416 139.394H62.1008C60.3539 139.396 58.6791 140.024 57.4432 141.141C56.2073 142.258 55.511 143.773 55.5068 145.353V269.481C55.5082 271.063 56.2034 272.579 57.4397 273.698C58.676 274.816 60.3524 275.445 62.1008 275.447H265.416C267.164 275.445 268.841 274.816 270.077 273.698C271.313 272.579 272.008 271.063 272.01 269.481V145.353C272.006 143.773 271.309 142.258 270.073 141.141C268.838 140.024 267.163 139.396 265.416 139.394Z" fill="#3F3D56"/>
<path d="M263.716 143.702H63.7932C62.8579 143.704 61.9616 144.041 61.3009 144.64C60.6402 145.239 60.2691 146.051 60.269 146.897V267.949C60.2706 268.795 60.6424 269.605 61.303 270.202C61.9636 270.8 62.859 271.136 63.7932 271.138H263.716C264.65 271.136 265.546 270.8 266.206 270.202C266.867 269.605 267.238 268.795 267.24 267.949V146.897C267.24 146.051 266.869 145.239 266.208 144.64C265.547 144.041 264.651 143.704 263.716 143.702Z" fill="#FFA263"/>
<path d="M226.921 321.323L225.075 313.389C224.998 313.065 224.834 312.764 224.596 312.513C224.358 312.262 224.054 312.068 223.712 311.951C223.465 311.863 223.201 311.818 222.935 311.818H107.68C107.414 311.818 107.15 311.863 106.903 311.951C106.561 312.068 106.258 312.262 106.02 312.513C105.782 312.764 105.617 313.065 105.54 313.389L103.694 321.323C103.627 321.611 103.632 321.909 103.709 322.195C103.785 322.481 103.931 322.748 104.136 322.977C104.341 323.206 104.6 323.39 104.893 323.517C105.187 323.643 105.508 323.709 105.833 323.71H224.774C225.101 323.711 225.423 323.646 225.718 323.518C226.012 323.391 226.271 323.205 226.474 322.974C226.68 322.746 226.826 322.48 226.904 322.194C226.981 321.909 226.987 321.611 226.921 321.323Z" fill="#2F2E41"/>
<path d="M111.83 313.247H108.882C108.685 313.247 108.524 313.392 108.524 313.57V314.912C108.524 315.091 108.685 315.235 108.882 315.235H111.83C112.028 315.235 112.188 315.091 112.188 314.912V313.57C112.188 313.392 112.028 313.247 111.83 313.247Z" fill="#3F3D56"/>
<path d="M119.157 313.247H116.209C116.011 313.247 115.851 313.392 115.851 313.57V314.912C115.851 315.091 116.011 315.235 116.209 315.235H119.157C119.354 315.235 119.514 315.091 119.514 314.912V313.57C119.514 313.392 119.354 313.247 119.157 313.247Z" fill="#3F3D56"/>
<path d="M126.484 313.247H123.536C123.338 313.247 123.178 313.392 123.178 313.57V314.912C123.178 315.091 123.338 315.235 123.536 315.235H126.484C126.681 315.235 126.842 315.091 126.842 314.912V313.57C126.842 313.392 126.681 313.247 126.484 313.247Z" fill="#3F3D56"/>
<path d="M133.811 313.247H130.863C130.665 313.247 130.505 313.392 130.505 313.57V314.912C130.505 315.091 130.665 315.235 130.863 315.235H133.811C134.008 315.235 134.168 315.091 134.168 314.912V313.57C134.168 313.392 134.008 313.247 133.811 313.247Z" fill="#3F3D56"/>
<path d="M141.137 313.247H138.189C137.992 313.247 137.832 313.392 137.832 313.57V314.912C137.832 315.091 137.992 315.235 138.189 315.235H141.137C141.335 315.235 141.495 315.091 141.495 314.912V313.57C141.495 313.392 141.335 313.247 141.137 313.247Z" fill="#3F3D56"/>
<path d="M148.464 313.247H145.516C145.318 313.247 145.158 313.392 145.158 313.57V314.912C145.158 315.091 145.318 315.235 145.516 315.235H148.464C148.661 315.235 148.822 315.091 148.822 314.912V313.57C148.822 313.392 148.661 313.247 148.464 313.247Z" fill="#3F3D56"/>
<path d="M155.791 313.247H152.843C152.645 313.247 152.485 313.392 152.485 313.57V314.912C152.485 315.091 152.645 315.235 152.843 315.235H155.791C155.989 315.235 156.149 315.091 156.149 314.912V313.57C156.149 313.392 155.989 313.247 155.791 313.247Z" fill="#3F3D56"/>
<path d="M163.117 313.247H160.169C159.972 313.247 159.812 313.392 159.812 313.57V314.912C159.812 315.091 159.972 315.235 160.169 315.235H163.117C163.315 315.235 163.475 315.091 163.475 314.912V313.57C163.475 313.392 163.315 313.247 163.117 313.247Z" fill="#3F3D56"/>
<path d="M170.444 313.247H167.496C167.298 313.247 167.138 313.392 167.138 313.57V314.912C167.138 315.091 167.298 315.235 167.496 315.235H170.444C170.641 315.235 170.802 315.091 170.802 314.912V313.57C170.802 313.392 170.641 313.247 170.444 313.247Z" fill="#3F3D56"/>
<path d="M177.77 313.247H174.823C174.625 313.247 174.465 313.392 174.465 313.57V314.912C174.465 315.091 174.625 315.235 174.823 315.235H177.77C177.968 315.235 178.128 315.091 178.128 314.912V313.57C178.128 313.392 177.968 313.247 177.77 313.247Z" fill="#3F3D56"/>
<path d="M185.098 313.247H182.15C181.952 313.247 181.792 313.392 181.792 313.57V314.912C181.792 315.091 181.952 315.235 182.15 315.235H185.098C185.295 315.235 185.455 315.091 185.455 314.912V313.57C185.455 313.392 185.295 313.247 185.098 313.247Z" fill="#3F3D56"/>
<path d="M192.424 313.247H189.476C189.278 313.247 189.118 313.392 189.118 313.57V314.912C189.118 315.091 189.278 315.235 189.476 315.235H192.424C192.621 315.235 192.781 315.091 192.781 314.912V313.57C192.781 313.392 192.621 313.247 192.424 313.247Z" fill="#3F3D56"/>
<path d="M199.75 313.247H196.803C196.605 313.247 196.445 313.392 196.445 313.57V314.912C196.445 315.091 196.605 315.235 196.803 315.235H199.75C199.948 315.235 200.108 315.091 200.108 314.912V313.57C200.108 313.392 199.948 313.247 199.75 313.247Z" fill="#3F3D56"/>
<path d="M207.077 313.247H204.129C203.932 313.247 203.771 313.392 203.771 313.57V314.912C203.771 315.091 203.932 315.235 204.129 315.235H207.077C207.275 315.235 207.435 315.091 207.435 314.912V313.57C207.435 313.392 207.275 313.247 207.077 313.247Z" fill="#3F3D56"/>
<path d="M214.403 313.247H211.455C211.258 313.247 211.098 313.392 211.098 313.57V314.912C211.098 315.091 211.258 315.235 211.455 315.235H214.403C214.601 315.235 214.761 315.091 214.761 314.912V313.57C214.761 313.392 214.601 313.247 214.403 313.247Z" fill="#3F3D56"/>
<path d="M221.73 313.247H218.782C218.585 313.247 218.425 313.392 218.425 313.57V314.912C218.425 315.091 218.585 315.235 218.782 315.235H221.73C221.928 315.235 222.088 315.091 222.088 314.912V313.57C222.088 313.392 221.928 313.247 221.73 313.247Z" fill="#3F3D56"/>
<path d="M111.744 316.561H108.796C108.599 316.561 108.438 316.706 108.438 316.885V318.226C108.438 318.405 108.599 318.55 108.796 318.55H111.744C111.942 318.55 112.102 318.405 112.102 318.226V316.885C112.102 316.706 111.942 316.561 111.744 316.561Z" fill="#3F3D56"/>
<path d="M119.07 316.561H116.122C115.925 316.561 115.765 316.706 115.765 316.885V318.226C115.765 318.405 115.925 318.55 116.122 318.55H119.07C119.268 318.55 119.428 318.405 119.428 318.226V316.885C119.428 316.706 119.268 316.561 119.07 316.561Z" fill="#3F3D56"/>
<path d="M126.397 316.561H123.449C123.252 316.561 123.092 316.706 123.092 316.885V318.226C123.092 318.405 123.252 318.55 123.449 318.55H126.397C126.595 318.55 126.755 318.405 126.755 318.226V316.885C126.755 316.706 126.595 316.561 126.397 316.561Z" fill="#3F3D56"/>
<path d="M133.724 316.561H130.776C130.579 316.561 130.418 316.706 130.418 316.885V318.226C130.418 318.405 130.579 318.55 130.776 318.55H133.724C133.922 318.55 134.082 318.405 134.082 318.226V316.885C134.082 316.706 133.922 316.561 133.724 316.561Z" fill="#3F3D56"/>
<path d="M141.05 316.561H138.102C137.905 316.561 137.745 316.706 137.745 316.885V318.226C137.745 318.405 137.905 318.55 138.102 318.55H141.05C141.248 318.55 141.408 318.405 141.408 318.226V316.885C141.408 316.706 141.248 316.561 141.05 316.561Z" fill="#3F3D56"/>
<path d="M148.377 316.561H145.429C145.231 316.561 145.071 316.706 145.071 316.885V318.226C145.071 318.405 145.231 318.55 145.429 318.55H148.377C148.574 318.55 148.735 318.405 148.735 318.226V316.885C148.735 316.706 148.574 316.561 148.377 316.561Z" fill="#3F3D56"/>
<path d="M155.704 316.561H152.756C152.558 316.561 152.398 316.706 152.398 316.885V318.226C152.398 318.405 152.558 318.55 152.756 318.55H155.704C155.901 318.55 156.061 318.405 156.061 318.226V316.885C156.061 316.706 155.901 316.561 155.704 316.561Z" fill="#3F3D56"/>
<path d="M163.031 316.561H160.083C159.885 316.561 159.725 316.706 159.725 316.885V318.226C159.725 318.405 159.885 318.55 160.083 318.55H163.031C163.228 318.55 163.388 318.405 163.388 318.226V316.885C163.388 316.706 163.228 316.561 163.031 316.561Z" fill="#3F3D56"/>
<path d="M170.357 316.561H167.409C167.211 316.561 167.051 316.706 167.051 316.885V318.226C167.051 318.405 167.211 318.55 167.409 318.55H170.357C170.554 318.55 170.715 318.405 170.715 318.226V316.885C170.715 316.706 170.554 316.561 170.357 316.561Z" fill="#3F3D56"/>
<path d="M177.684 316.561H174.736C174.539 316.561 174.378 316.706 174.378 316.885V318.226C174.378 318.405 174.539 318.55 174.736 318.55H177.684C177.882 318.55 178.042 318.405 178.042 318.226V316.885C178.042 316.706 177.882 316.561 177.684 316.561Z" fill="#3F3D56"/>
<path d="M185.01 316.561H182.062C181.865 316.561 181.705 316.706 181.705 316.885V318.226C181.705 318.405 181.865 318.55 182.062 318.55H185.01C185.208 318.55 185.368 318.405 185.368 318.226V316.885C185.368 316.706 185.208 316.561 185.01 316.561Z" fill="#3F3D56"/>
<path d="M192.337 316.561H189.389C189.192 316.561 189.032 316.706 189.032 316.885V318.226C189.032 318.405 189.192 318.55 189.389 318.55H192.337C192.535 318.55 192.695 318.405 192.695 318.226V316.885C192.695 316.706 192.535 316.561 192.337 316.561Z" fill="#3F3D56"/>
<path d="M199.664 316.561H196.716C196.518 316.561 196.358 316.706 196.358 316.885V318.226C196.358 318.405 196.518 318.55 196.716 318.55H199.664C199.861 318.55 200.021 318.405 200.021 318.226V316.885C200.021 316.706 199.861 316.561 199.664 316.561Z" fill="#3F3D56"/>
<path d="M206.99 316.561H204.042C203.845 316.561 203.685 316.706 203.685 316.885V318.226C203.685 318.405 203.845 318.55 204.042 318.55H206.99C207.188 318.55 207.348 318.405 207.348 318.226V316.885C207.348 316.706 207.188 316.561 206.99 316.561Z" fill="#3F3D56"/>
<path d="M214.317 316.561H211.369C211.171 316.561 211.011 316.706 211.011 316.885V318.226C211.011 318.405 211.171 318.55 211.369 318.55H214.317C214.514 318.55 214.675 318.405 214.675 318.226V316.885C214.675 316.706 214.514 316.561 214.317 316.561Z" fill="#3F3D56"/>
<path d="M221.644 316.561H218.696C218.499 316.561 218.338 316.706 218.338 316.885V318.226C218.338 318.405 218.499 318.55 218.696 318.55H221.644C221.842 318.55 222.002 318.405 222.002 318.226V316.885C222.002 316.706 221.842 316.561 221.644 316.561Z" fill="#3F3D56"/>
<path d="M172.555 320.538H143.964C143.766 320.538 143.606 320.683 143.606 320.862V322.203C143.606 322.382 143.766 322.527 143.964 322.527H172.555C172.752 322.527 172.913 322.382 172.913 322.203V320.862C172.913 320.683 172.752 320.538 172.555 320.538Z" fill="#3F3D56"/>
<path d="M253.67 160.378H66.6027C66.4083 160.374 66.2232 160.301 66.0872 160.176C65.9512 160.05 65.875 159.881 65.875 159.705C65.875 159.529 65.9512 159.36 66.0872 159.234C66.2232 159.108 66.4083 159.036 66.6027 159.032H253.67C253.864 159.036 254.049 159.108 254.185 159.234C254.321 159.36 254.397 159.529 254.397 159.705C254.397 159.881 254.321 160.05 254.185 160.176C254.049 160.301 253.864 160.374 253.67 160.378Z" fill="#3F3D56"/>
<path d="M79.3367 155.595C81.7445 155.595 83.6964 153.79 83.6964 151.563C83.6964 149.336 81.7445 147.531 79.3367 147.531C76.929 147.531 74.9771 149.336 74.9771 151.563C74.9771 153.79 76.929 155.595 79.3367 155.595Z" fill="#3F3D56"/>
<path d="M94.3973 155.595C96.8051 155.595 98.757 153.79 98.757 151.563C98.757 149.336 96.8051 147.531 94.3973 147.531C91.9895 147.531 90.0376 149.336 90.0376 151.563C90.0376 153.79 91.9895 155.595 94.3973 155.595Z" fill="#3F3D56"/>
<path d="M109.458 155.595C111.866 155.595 113.818 153.79 113.818 151.563C113.818 149.336 111.866 147.531 109.458 147.531C107.051 147.531 105.099 149.336 105.099 151.563C105.099 153.79 107.051 155.595 109.458 155.595Z" fill="#3F3D56"/>
<path d="M244.601 148.528H233.904C233.692 148.532 233.491 148.611 233.343 148.748C233.196 148.885 233.113 149.069 233.113 149.26C233.113 149.452 233.196 149.635 233.343 149.772C233.491 149.909 233.692 149.988 233.904 149.993H244.601C244.813 149.99 245.016 149.912 245.166 149.775C245.315 149.638 245.399 149.453 245.399 149.26C245.399 149.068 245.315 148.883 245.166 148.746C245.016 148.609 244.813 148.531 244.601 148.528Z" fill="#3F3D56"/>
<path d="M244.601 151.279H233.904C233.692 151.283 233.491 151.362 233.343 151.499C233.195 151.636 233.112 151.82 233.112 152.011C233.112 152.203 233.195 152.387 233.343 152.524C233.491 152.661 233.692 152.74 233.904 152.744H244.601C244.814 152.742 245.017 152.663 245.167 152.526C245.317 152.389 245.401 152.204 245.401 152.011C245.401 151.819 245.317 151.634 245.167 151.497C245.017 151.359 244.814 151.281 244.601 151.279Z" fill="#3F3D56"/>
<path d="M244.601 154.03H233.904C233.692 154.034 233.491 154.113 233.343 154.25C233.196 154.387 233.113 154.571 233.113 154.762C233.113 154.954 233.196 155.137 233.343 155.274C233.491 155.411 233.692 155.49 233.904 155.495H244.601C244.813 155.492 245.016 155.414 245.166 155.277C245.315 155.139 245.399 154.955 245.399 154.762C245.399 154.57 245.315 154.385 245.166 154.248C245.016 154.111 244.813 154.033 244.601 154.03Z" fill="#3F3D56"/>
<path d="M82.7326 176.019H78.8889C77.7235 176.019 76.7788 176.874 76.7788 177.928C76.7788 178.982 77.7235 179.837 78.8889 179.837H82.7326C83.8979 179.837 84.8426 178.982 84.8426 177.928C84.8426 176.874 83.8979 176.019 82.7326 176.019Z" fill="white"/>
<path d="M126.693 176.019H122.849C121.683 176.019 120.739 176.874 120.739 177.928C120.739 178.982 121.683 179.837 122.849 179.837H126.693C127.858 179.837 128.803 178.982 128.803 177.928C128.803 176.874 127.858 176.019 126.693 176.019Z" fill="white"/>
<path d="M139.149 176.019H135.305C134.14 176.019 133.195 176.874 133.195 177.928C133.195 178.982 134.14 179.837 135.305 179.837H139.149C140.314 179.837 141.259 178.982 141.259 177.928C141.259 176.874 140.314 176.019 139.149 176.019Z" fill="white"/>
<path d="M114.736 175.701H90.8464C89.681 175.701 88.7363 176.556 88.7363 177.61C88.7363 178.664 89.681 179.519 90.8464 179.519H114.736C115.901 179.519 116.846 178.664 116.846 177.61C116.846 176.556 115.901 175.701 114.736 175.701Z" fill="white"/>
<path d="M173.349 175.701H149.46C148.294 175.701 147.35 176.556 147.35 177.61C147.35 178.664 148.294 179.519 149.46 179.519H173.349C174.514 179.519 175.459 178.664 175.459 177.61C175.459 176.556 174.514 175.701 173.349 175.701Z" fill="white"/>
<path d="M94.4557 184.636H90.612C89.4467 184.636 88.502 185.491 88.502 186.545C88.502 187.6 89.4467 188.454 90.612 188.454H94.4557C95.621 188.454 96.5657 187.6 96.5657 186.545C96.5657 185.491 95.621 184.636 94.4557 184.636Z" fill="white"/>
<path d="M138.415 184.636H134.571C133.406 184.636 132.461 185.491 132.461 186.545C132.461 187.6 133.406 188.454 134.571 188.454H138.415C139.581 188.454 140.525 187.6 140.525 186.545C140.525 185.491 139.581 184.636 138.415 184.636Z" fill="white"/>
<path d="M150.871 184.636H147.027C145.862 184.636 144.917 185.491 144.917 186.545C144.917 187.6 145.862 188.454 147.027 188.454H150.871C152.036 188.454 152.981 187.6 152.981 186.545C152.981 185.491 152.036 184.636 150.871 184.636Z" fill="white"/>
<path d="M126.458 184.318H102.569C101.404 184.318 100.459 185.173 100.459 186.227C100.459 187.281 101.404 188.136 102.569 188.136H126.458C127.624 188.136 128.568 187.281 128.568 186.227C128.568 185.173 127.624 184.318 126.458 184.318Z" fill="white"/>
<path d="M185.071 184.318H161.182C160.017 184.318 159.072 185.173 159.072 186.227C159.072 187.281 160.017 188.136 161.182 188.136H185.071C186.237 188.136 187.182 187.281 187.182 186.227C187.182 185.173 186.237 184.318 185.071 184.318Z" fill="white"/>
<path d="M106.178 193.254H102.335C101.169 193.254 100.225 194.108 100.225 195.163C100.225 196.217 101.169 197.072 102.335 197.072H106.178C107.344 197.072 108.288 196.217 108.288 195.163C108.288 194.108 107.344 193.254 106.178 193.254Z" fill="white"/>
<path d="M150.138 193.254H146.295C145.129 193.254 144.185 194.108 144.185 195.163C144.185 196.217 145.129 197.072 146.295 197.072H150.138C151.304 197.072 152.248 196.217 152.248 195.163C152.248 194.108 151.304 193.254 150.138 193.254Z" fill="white"/>
<path d="M162.594 193.254H158.75C157.585 193.254 156.64 194.108 156.64 195.163C156.64 196.217 157.585 197.072 158.75 197.072H162.594C163.759 197.072 164.704 196.217 164.704 195.163C164.704 194.108 163.759 193.254 162.594 193.254Z" fill="white"/>
<path d="M138.181 192.935H114.292C113.126 192.935 112.182 193.79 112.182 194.844C112.182 195.899 113.126 196.753 114.292 196.753H138.181C139.346 196.753 140.291 195.899 140.291 194.844C140.291 193.79 139.346 192.935 138.181 192.935Z" fill="white"/>
<path d="M196.794 192.935H172.905C171.74 192.935 170.795 193.79 170.795 194.844C170.795 195.899 171.74 196.753 172.905 196.753H196.794C197.959 196.753 198.904 195.899 198.904 194.844C198.904 193.79 197.959 192.935 196.794 192.935Z" fill="white"/>
<path d="M117.901 201.871H114.057C112.891 201.871 111.947 202.725 111.947 203.78C111.947 204.834 112.891 205.689 114.057 205.689H117.901C119.066 205.689 120.011 204.834 120.011 203.78C120.011 202.725 119.066 201.871 117.901 201.871Z" fill="white"/>
<path d="M161.861 201.871H158.017C156.852 201.871 155.907 202.725 155.907 203.78C155.907 204.834 156.852 205.689 158.017 205.689H161.861C163.026 205.689 163.971 204.834 163.971 203.78C163.971 202.725 163.026 201.871 161.861 201.871Z" fill="white"/>
<path d="M174.316 201.871H170.472C169.307 201.871 168.362 202.725 168.362 203.78C168.362 204.834 169.307 205.689 170.472 205.689H174.316C175.481 205.689 176.426 204.834 176.426 203.78C176.426 202.725 175.481 201.871 174.316 201.871Z" fill="white"/>
<path d="M149.904 201.552H126.014C124.849 201.552 123.904 202.407 123.904 203.462C123.904 204.516 124.849 205.371 126.014 205.371H149.904C151.069 205.371 152.014 204.516 152.014 203.462C152.014 202.407 151.069 201.552 149.904 201.552Z" fill="white"/>
<path d="M126.693 236.137H122.849C121.683 236.137 120.739 236.991 120.739 238.046C120.739 239.1 121.683 239.955 122.849 239.955H126.693C127.858 239.955 128.803 239.1 128.803 238.046C128.803 236.991 127.858 236.137 126.693 236.137Z" fill="white"/>
<path d="M139.149 236.137H135.305C134.14 236.137 133.195 236.991 133.195 238.046C133.195 239.1 134.14 239.955 135.305 239.955H139.149C140.314 239.955 141.259 239.1 141.259 238.046C141.259 236.991 140.314 236.137 139.149 236.137Z" fill="white"/>
<path d="M173.349 236.455H149.46C148.294 236.455 147.35 237.31 147.35 238.364C147.35 239.418 148.294 240.273 149.46 240.273H173.349C174.514 240.273 175.459 239.418 175.459 238.364C175.459 237.31 174.514 236.455 173.349 236.455Z" fill="white"/>
<path d="M82.7326 236.137H78.8889C77.7235 236.137 76.7788 236.991 76.7788 238.046C76.7788 239.1 77.7235 239.955 78.8889 239.955H82.7326C83.8979 239.955 84.8426 239.1 84.8426 238.046C84.8426 236.991 83.8979 236.137 82.7326 236.137Z" fill="white"/>
<path d="M114.736 236.455H90.8464C89.681 236.455 88.7363 237.31 88.7363 238.364C88.7363 239.418 89.681 240.273 90.8464 240.273H114.736C115.901 240.273 116.846 239.418 116.846 238.364C116.846 237.31 115.901 236.455 114.736 236.455Z" fill="white"/>
<path d="M94.4557 227.519H90.612C89.4467 227.519 88.502 228.374 88.502 229.428C88.502 230.482 89.4467 231.337 90.612 231.337H94.4557C95.621 231.337 96.5657 230.482 96.5657 229.428C96.5657 228.374 95.621 227.519 94.4557 227.519Z" fill="white"/>
<path d="M138.415 227.519H134.571C133.406 227.519 132.461 228.374 132.461 229.428C132.461 230.482 133.406 231.337 134.571 231.337H138.415C139.581 231.337 140.525 230.482 140.525 229.428C140.525 228.374 139.581 227.519 138.415 227.519Z" fill="white"/>
<path d="M150.871 227.519H147.027C145.862 227.519 144.917 228.374 144.917 229.428C144.917 230.482 145.862 231.337 147.027 231.337H150.871C152.036 231.337 152.981 230.482 152.981 229.428C152.981 228.374 152.036 227.519 150.871 227.519Z" fill="white"/>
<path d="M126.458 227.838H102.569C101.404 227.838 100.459 228.692 100.459 229.747C100.459 230.801 101.404 231.656 102.569 231.656H126.458C127.624 231.656 128.568 230.801 128.568 229.747C128.568 228.692 127.624 227.838 126.458 227.838Z" fill="white"/>
<path d="M106.178 218.902H102.335C101.169 218.902 100.225 219.757 100.225 220.811C100.225 221.865 101.169 222.72 102.335 222.72H106.178C107.344 222.72 108.288 221.865 108.288 220.811C108.288 219.757 107.344 218.902 106.178 218.902Z" fill="white"/>
<path d="M150.138 218.902H146.295C145.129 218.902 144.185 219.757 144.185 220.811C144.185 221.865 145.129 222.72 146.295 222.72H150.138C151.304 222.72 152.248 221.865 152.248 220.811C152.248 219.757 151.304 218.902 150.138 218.902Z" fill="white"/>
<path d="M162.594 218.902H158.75C157.585 218.902 156.64 219.757 156.64 220.811C156.64 221.865 157.585 222.72 158.75 222.72H162.594C163.759 222.72 164.704 221.865 164.704 220.811C164.704 219.757 163.759 218.902 162.594 218.902Z" fill="white"/>
<path d="M138.181 219.221H114.292C113.126 219.221 112.182 220.075 112.182 221.13C112.182 222.184 113.126 223.039 114.292 223.039H138.181C139.346 223.039 140.291 222.184 140.291 221.13C140.291 220.075 139.346 219.221 138.181 219.221Z" fill="white"/>
<path d="M117.901 210.285H114.057C112.891 210.285 111.947 211.14 111.947 212.194C111.947 213.248 112.891 214.103 114.057 214.103H117.901C119.066 214.103 120.011 213.248 120.011 212.194C120.011 211.14 119.066 210.285 117.901 210.285Z" fill="white"/>
<path d="M161.861 210.285H158.017C156.852 210.285 155.907 211.14 155.907 212.194C155.907 213.248 156.852 214.103 158.017 214.103H161.861C163.026 214.103 163.971 213.248 163.971 212.194C163.971 211.14 163.026 210.285 161.861 210.285Z" fill="white"/>
<path d="M174.316 210.285H170.472C169.307 210.285 168.362 211.14 168.362 212.194C168.362 213.248 169.307 214.103 170.472 214.103H174.316C175.481 214.103 176.426 213.248 176.426 212.194C176.426 211.14 175.481 210.285 174.316 210.285Z" fill="white"/>
<path d="M149.904 210.603H126.014C124.849 210.603 123.904 211.458 123.904 212.512C123.904 213.567 124.849 214.421 126.014 214.421H149.904C151.069 214.421 152.014 213.567 152.014 212.512C152.014 211.458 151.069 210.603 149.904 210.603Z" fill="white"/>
<path d="M255.913 360.624C255.466 360.83 255.012 361.035 254.565 361.234C242.989 366.471 233.728 369.447 221.06 372.708C219.991 361.904 218.957 342.913 217.954 331.14C217.69 328.084 217.426 325.519 217.17 323.71C217.105 322.747 216.888 321.799 216.525 320.892L216.569 323.71L216.679 331.14L217.316 373.636C201.558 377.409 185.371 379.519 169.078 379.927C168.228 379.947 167.392 379.96 166.586 379.973C166.301 379.98 166.022 379.987 165.744 379.987C164.828 379.993 163.92 380 163.004 380C145.833 380.011 128.724 378.135 112.054 374.412C112.413 363.72 112.772 344.941 113.116 331.14C113.19 328.442 113.256 325.93 113.329 323.71C113.468 318.963 113.615 315.543 113.754 314.396C113.631 314.6 113.535 314.815 113.468 315.039C112.79 317.898 112.327 320.794 112.083 323.71C111.827 325.93 111.571 328.442 111.314 331.14C109.951 345.478 108.53 364.973 107.065 373.239C98.3427 371.084 89.7843 368.421 81.4433 365.264C77.0473 363.607 72.7294 361.82 68.4897 359.902C69.2957 355.129 70.1382 349.78 71.0028 344.232C71.6768 339.93 72.3729 335.509 73.0836 331.14C74.1826 324.392 75.3109 317.777 76.4538 311.95C78.1243 303.439 79.8387 296.598 81.5385 293.456C83.1504 290.474 84.7623 287.53 86.3228 284.713C86.865 283.726 87.4072 282.751 87.9347 281.803C88.0593 281.578 88.1838 281.359 88.3084 281.14C89.4293 279.145 90.5137 277.236 91.5468 275.446C92.4333 273.915 93.2759 272.47 94.0745 271.138C96.0087 267.903 97.6499 265.324 98.8661 263.694C103.951 256.716 111.521 251.521 120.319 248.972L120.538 248.919L120.692 248.978L135.675 244.815L137.866 244.206L139.339 243.795L144.526 240.222L147.347 238.28L149.992 236.457L155.164 232.897L187.189 234.68L193.424 248.262L207.389 252.883L207.63 252.783L207.843 252.704L208.063 252.757C216.859 255.308 224.428 260.503 229.515 267.479C230.204 268.413 231.039 269.646 231.984 271.138C232.79 272.404 233.669 273.849 234.622 275.446C235.977 277.72 237.457 280.285 239.025 283.063C239.37 283.673 239.721 284.296 240.073 284.925C240.725 286.092 241.387 287.283 242.058 288.498C243.619 291.315 245.231 294.258 246.843 297.248C248.242 299.84 249.656 305.169 251.048 311.95C252.199 317.585 253.342 324.227 254.448 331.14C255.899 340.102 254.353 350.834 255.664 359.08C255.745 359.604 255.833 360.114 255.913 360.624Z" fill="#3F3D56"/>
<path d="M163.454 222.056C184.025 222.056 200.7 206.969 200.7 188.358C200.7 169.748 184.025 154.661 163.454 154.661C142.884 154.661 126.208 169.748 126.208 188.358C126.208 206.969 142.884 222.056 163.454 222.056Z" fill="#F4D3D3"/>
<path opacity="0.2" d="M102.427 311.921L108.652 290.185L114.149 308.941L102.427 311.921Z" fill="black"/>
<path d="M268.09 297.758C265.863 325.519 268.171 337.742 255.877 360.631C244.691 365.584 233.039 369.626 221.06 372.708C219.815 373.026 218.567 373.336 217.316 373.636C201.559 377.408 185.371 379.519 169.078 379.927C168.228 379.947 167.393 379.96 166.587 379.973C166.301 379.98 166.022 379.986 165.744 379.986C164.828 379.993 163.92 380 163.004 380C145.833 380.011 128.725 378.135 112.054 374.412C110.384 374.041 108.721 373.65 107.065 373.239C98.3428 371.084 89.7844 368.421 81.4434 365.264C77.0474 363.607 72.7296 361.82 68.4899 359.902C67.5301 359.464 66.5703 359.027 65.6251 358.576C60.7676 350.847 58.0054 341.448 57.9468 330.152C61.3097 310.691 260.661 280.975 268.09 297.758Z" fill="#2F2E41"/>
<path opacity="0.2" d="M268.085 302.512C268.198 300.794 268.326 299.019 268.474 297.17C261.045 280.386 61.6935 310.102 58.3306 329.564C58.3398 331.348 58.4242 333.08 58.566 334.771C66.71 315.562 256.096 287.319 268.085 302.512Z" fill="black"/>
<path d="M70.7573 223.665C70.8059 223.064 70.7116 222.46 70.4808 221.895C70.25 221.33 69.888 220.816 69.4192 220.388C68.9504 219.96 68.3857 219.627 67.7632 219.413C67.1406 219.199 66.4745 219.108 65.8098 219.147C65.5622 219.155 65.3158 219.183 65.0735 219.23L35.9411 225.184C35.2901 225.327 34.6794 225.592 34.1483 225.961C33.6172 226.33 33.1775 226.796 32.8575 227.329C32.4303 227.343 32.006 227.399 31.5919 227.495C30.6853 227.681 29.8281 228.027 29.0692 228.512C28.3103 228.998 27.6645 229.614 27.1688 230.326C26.673 231.037 26.337 231.83 26.1799 232.659C26.0228 233.488 26.0478 234.336 26.2532 235.157C26.4587 235.977 26.8408 236.752 27.3776 237.439C27.9143 238.126 28.5953 238.71 29.3817 239.158C30.9697 240.064 32.8905 240.362 34.7214 239.987C35.7636 239.768 36.7385 239.341 37.5748 238.738L47.4468 263.887C47.9399 264.675 48.7017 265.298 49.6183 265.662C50.535 266.026 51.5572 266.112 52.5322 265.906L71.4707 262.034C72.4382 261.829 73.309 261.352 73.9581 260.671C74.6072 259.99 75.0011 259.141 75.0834 258.245L70.7573 223.665ZM34.2842 238.196C32.9766 238.463 31.6054 238.25 30.4712 237.604C29.3371 236.957 28.5325 235.93 28.234 234.748C27.9355 233.566 28.1674 232.324 28.8788 231.297C29.5902 230.269 30.7231 229.538 32.0291 229.265C32.1211 229.244 32.2133 229.265 32.3053 229.244C32.2983 230.003 32.5126 230.749 32.9266 231.409L36.5393 237.114C35.9104 237.653 35.1307 238.028 34.2842 238.196Z" fill="#2F2E41"/>
<path d="M65.8103 219.147C66.0864 222.478 59.7813 226.308 51.3362 227.828C43.5812 229.265 36.6318 228.265 34.6758 225.642C35.0689 225.431 35.496 225.277 35.9415 225.184L65.0739 219.23C65.3162 219.183 65.5626 219.155 65.8103 219.147Z" fill="#3F3D56"/>
<path d="M45.6621 303.708L62.0252 296.306L48.3893 262.996L44.7956 246.198C44.3287 244.016 43.2369 241.982 41.6293 240.301C40.0217 238.62 37.9546 237.35 35.6346 236.619C33.3146 235.887 30.8229 235.718 28.4085 236.131C25.9942 236.543 23.7417 237.521 21.8762 238.968C19.1117 241.112 17.376 244.143 17.0353 247.423C16.6946 250.703 17.7755 253.974 20.05 256.546L33.3898 271.632L45.6621 303.708Z" fill="#F4D3D3"/>
<path d="M62.026 290.137L40.2085 300.007L56.7657 346.943C57.9546 350.314 60.086 353.349 62.9532 355.755C65.8204 358.161 69.326 359.856 73.1303 360.676C77.8211 361.686 82.7456 361.319 87.19 359.627C91.6345 357.935 95.3677 355.006 97.8486 351.265L141.754 283.18C144.865 278.488 145.825 272.882 144.43 267.558C143.034 262.235 139.393 257.616 134.284 254.688C131.536 253.114 128.452 252.081 125.234 251.656C122.016 251.231 118.734 251.423 115.604 252.222C112.473 253.02 109.564 254.405 107.064 256.288C104.565 258.171 102.531 260.509 101.097 263.15L74.2985 314.811L62.026 290.137Z" fill="#3F3D56"/>
<path d="M55.2773 247.72C55.2368 247.72 55.1965 247.714 55.1582 247.702L50.3948 246.218C50.3373 246.2 50.2855 246.17 50.2443 246.129C50.2031 246.089 50.1736 246.04 50.1587 245.986C50.1437 245.933 50.1437 245.877 50.1586 245.824C50.1736 245.77 50.203 245.721 50.2442 245.681L53.787 242.191C53.8194 242.159 53.8586 242.133 53.9022 242.114C53.9459 242.096 53.9932 242.085 54.0413 242.083C54.0895 242.081 54.1376 242.088 54.1829 242.103C54.2282 242.118 54.2699 242.14 54.3054 242.17C54.3409 242.199 54.3696 242.235 54.3899 242.275C54.4102 242.314 54.4217 242.357 54.4236 242.401C54.4256 242.444 54.418 242.488 54.4013 242.529C54.3847 242.57 54.3592 242.607 54.3264 242.639L51.1622 245.756L55.3965 247.075C55.4784 247.101 55.5477 247.152 55.5921 247.219C55.6364 247.286 55.6529 247.366 55.6386 247.443C55.6244 247.521 55.5802 247.591 55.5141 247.642C55.4479 247.692 55.364 247.72 55.2773 247.72Z" fill="#FFA263"/>
<path d="M61.8066 246.511C61.7337 246.511 61.6624 246.491 61.6018 246.454C61.5413 246.417 61.4944 246.365 61.467 246.303C61.4397 246.242 61.4331 246.175 61.4482 246.11C61.4634 246.046 61.4995 245.987 61.5519 245.941L64.7716 243.124L60.4465 241.512C60.4019 241.495 60.3614 241.471 60.3273 241.44C60.2931 241.41 60.266 241.373 60.2475 241.333C60.2289 241.293 60.2193 241.25 60.2192 241.206C60.2191 241.163 60.2285 241.119 60.2469 241.079C60.2652 241.039 60.2921 241.002 60.3261 240.972C60.3601 240.941 60.4005 240.916 60.445 240.9C60.4895 240.883 60.5371 240.874 60.5853 240.874C60.6334 240.874 60.6811 240.883 60.7255 240.9L65.568 242.705C65.6242 242.726 65.6738 242.759 65.7123 242.802C65.7508 242.844 65.7769 242.895 65.7884 242.949C65.7998 243.003 65.7962 243.059 65.7778 243.111C65.7594 243.164 65.7269 243.211 65.6832 243.249L62.0613 246.417C61.993 246.477 61.9017 246.511 61.8066 246.511Z" fill="#FFA263"/>
<path d="M56.2771 249.747C56.2406 249.747 56.2043 249.742 56.1694 249.732C56.1234 249.72 56.0807 249.699 56.0436 249.671C56.0065 249.643 55.9758 249.609 55.9532 249.571C55.9307 249.532 55.9168 249.49 55.9123 249.447C55.9077 249.404 55.9127 249.36 55.9269 249.318L59.308 239.375C59.3369 239.291 59.4013 239.221 59.4871 239.181C59.5729 239.14 59.6732 239.131 59.7659 239.157C59.8585 239.183 59.9361 239.241 59.9816 239.319C60.027 239.396 60.0367 239.487 60.0084 239.571L56.6274 249.514C56.6042 249.581 56.5577 249.641 56.4947 249.683C56.4317 249.725 56.3555 249.747 56.2771 249.747Z" fill="#FFA263"/>
<path d="M139.305 174.945C134.47 174.576 129.635 174.206 124.801 173.837C126.463 173.149 128.193 172.412 129.301 171.098C130.408 169.784 130.637 167.708 129.299 166.582C127.736 165.266 125.148 165.963 123.439 167.122C124.38 162.687 127.311 158.623 131.424 156.053C136.447 152.915 148.875 156.657 154.931 155.937C161.919 155.105 162.791 149.725 169.779 148.893C172.412 148.58 175.376 148.344 177.447 149.846C179.745 151.513 180.002 154.664 182.029 156.595C184.923 159.353 189.882 158.54 194 159.315C199.833 160.415 204.229 165.034 206.26 170.093C208.291 175.152 208.365 180.654 208.417 186.035C208.475 192.066 208.496 199.047 203.667 203.212C200.725 205.749 192.71 214.456 191.844 218.046C191.228 220.595 166.151 223.701 160.716 223.559L142.191 218.046C140.371 210.805 143.382 196.483 147.711 190.17C146.286 191.871 139.694 196.99 138.686 195.061C137.678 193.132 138.135 187.087 136.881 185.28C135.297 182.999 142.275 175.171 139.305 174.945V174.945Z" fill="#2F2E41"/>
<path d="M131.697 189.427C131.697 192.614 131.153 195.406 130.35 197.326C129.946 198.291 129.517 198.941 129.142 199.32C128.776 199.69 128.584 199.69 128.568 199.69H128.568H128.568C128.552 199.69 128.36 199.69 127.994 199.32C127.619 198.941 127.19 198.291 126.787 197.326C125.984 195.406 125.439 192.614 125.439 189.427C125.439 186.239 125.984 183.448 126.787 181.527C127.19 180.563 127.619 179.912 127.994 179.534C128.36 179.164 128.552 179.164 128.568 179.164H128.568H128.568C128.584 179.164 128.776 179.164 129.142 179.534C129.517 179.912 129.946 180.563 130.35 181.527C131.153 183.448 131.697 186.239 131.697 189.427Z" stroke="#282730" stroke-width="4"/>
<path d="M133.697 187.107H150.914L157.508 193.072" stroke="#282730" stroke-width="6" stroke-linecap="round" stroke-linejoin="round"/>
</svg>
